<?xml version="1.0" encoding="utf-8"?>
<!-- Generator: Adobe Illustrator 18.0.0, SVG Export Plug-In . SVG Version: 6.00 Build 0)  -->
<!DOCTYPE svg PUBLIC "-//W3C//DTD SVG 1.1//EN" "http://www.w3.org/Graphics/SVG/1.1/DTD/svg11.dtd">
<svg version="1.1" id="Layer_1" xmlns="http://www.w3.org/2000/svg" xmlns:xlink="http://www.w3.org/1999/xlink" x="0px" y="0px"
	 viewBox="0 0 600 131" enable-background="new 0 0 600 131" xml:space="preserve">
<g>
	<path fill="#19A9E5" d="M333.6,1c-0.7-1.1-2.2-1.3-3.3-0.6l-24.7,17.3c-0.7,0.5-1.5,0.8-2.4,0.8l0,0c-0.9,0-1.8-0.3-2.4-0.8
		L276,0.4c-1.1-0.7-2.5-0.5-3.3,0.6c-0.3,0.4-0.4,0.9-0.4,1.3l0,37.1l0,0l0,0c0,1.3,1.1,2.3,2.3,2.3l0,0v0h57c1.3,0,2.3-1.1,2.3-2.3
		l0-37.1C334,1.9,333.9,1.4,333.6,1z"/>
	<path fill="#72D0EB" d="M274.7,41.8L274.7,41.8L274.7,41.8h57c1.3,0,2.3-1.1,2.3-2.3l0-37.1c0-0.5-0.1-0.9-0.4-1.3
		c-0.7-1.1-2.2-1.3-3.3-0.6l-57.6,40.3C273.2,41.4,273.9,41.8,274.7,41.8z"/>
	<g>
		<path fill="#2E343D" d="M246.9,61.6c-2.8,0-4.9,0.6-4.9,3.2v2.5c0,2.6,2.1,3.2,4.9,3.2c2.8,0,4.9-0.7,4.9-3.2v-2.5
			C251.8,62.2,249.7,61.6,246.9,61.6z"/>
		<path fill="#2E343D" d="M248.9,75.5H245c-1.3,0-2.3,1-2.3,2.3v33.6c0,1.3,1.1,2.4,2.3,2.4h3.9c1.3,0,2.3-1.1,2.3-2.4V77.8
			C251.2,76.5,250.2,75.5,248.9,75.5z"/>
		<path fill="#2E343D" d="M134.6,75.1c-5.7,0-9.7,2.5-12.7,6.5c-2-4-5.8-6.5-11.2-6.5c-5.8,0-9,3.1-11.5,6.5l0-3.7
			c0-1.3-1.1-2.3-2.3-2.3H93c-1.3,0-2.3,1.1-2.3,2.3v33.6c0,1.3,1.1,2.4,2.3,2.4h3.9c1.3,0,2.3-1.1,2.3-2.4l0-19.2
			c0-5.8,3.3-9.3,8-9.3c4.8,0,7.6,3.3,7.6,9.1v19.4c0,1.3,1.1,2.4,2.3,2.4h3.9c1.3,0,2.3-1.1,2.3-2.4V92.2c0-6,3.3-9.3,8-9.3
			c4.8,0,7.6,3.2,7.6,9.2l0,19.3c0,1.3,1.1,2.4,2.3,2.4h3.9c1.3,0,2.3-1.1,2.3-2.4v-22C147.8,80.3,142.8,75.1,134.6,75.1z"/>
		<path fill="#2E343D" d="M497.8,61.6c-2.8,0-4.9,0.6-4.9,3.2v2.5c0,2.6,2.1,3.2,4.9,3.2c2.8,0,4.9-0.7,4.9-3.2v-2.5
			C502.7,62.2,500.6,61.6,497.8,61.6z"/>
		<path fill="#2E343D" d="M499.8,75.5h-3.9c-1.3,0-2.3,1-2.3,2.3v33.6c0,1.3,1.1,2.4,2.3,2.4h3.9c1.3,0,2.3-1.1,2.3-2.4V77.8
			C502.1,76.5,501.1,75.5,499.8,75.5z"/>
		<path fill="#2E343D" d="M25.7,71.6c3.7,0,7.3,1.2,10.2,3.4c0.4,0.3,0.9,0.5,1.4,0.5c0.6,0,1.2-0.2,1.6-0.7l3-3
			c0.5-0.5,0.7-1.1,0.7-1.7c0-0.6-0.3-1.2-0.8-1.6c-4.6-3.7-10.1-5.6-16-5.6C11.5,62.8,0,74.4,0,88.5c0,14.2,11.5,25.7,25.7,25.7
			c5.9,0,11.5-1.9,16-5.6c0.5-0.4,0.8-1,0.8-1.6c0-0.6-0.2-1.3-0.7-1.7l-3-3c-0.4-0.4-1-0.7-1.6-0.7c-0.5,0-1,0.2-1.4,0.5
			c-3,2.2-6.5,3.4-10.2,3.4c-9.4,0-17-7.6-17-17C8.7,79.2,16.4,71.6,25.7,71.6z"/>
		<path fill="#2E343D" d="M291.9,75.5H288c-1.3,0-2.4,1-2.4,2.3v3.8c-2.8-3.9-6.7-6.5-12.8-6.5c-8.8,0-17.4,7-17.4,19.5v0.1
			c0,12.4,8.5,19.5,17.4,19.5c6.3,0,10.2-2.9,12.8-6.4l0.1-0.1v3.5c0,6.5-5,12.4-12,12.4c-4.3,0-8.2-2-10.2-5.3
			c-0.7-1.1-2.1-1.5-3.2-0.8l-1.7,1.1c-1.1,0.7-1.5,2.1-0.8,3.2c3.2,5.3,9,8.8,16.2,8.8c12.5,0,20.1-8.9,20.1-19.6V77.8
			C294.3,76.5,293.2,75.5,291.9,75.5z M284.9,94.8c0,7.2-4.9,12-10.6,12c-5.7,0-10.2-4.6-10.2-12v-0.1c0-7.3,4.5-12,10.2-12
			c5.6,0,10.6,4.8,10.6,12V94.8z"/>
		<path fill="#2E343D" d="M474.1,75.1c-5.8,0-9.3,3-11.7,6.4v-3.7c0-1.3-1.1-2.3-2.3-2.3h-3.9c-1.3,0-2.3,1.1-2.3,2.3v33.6
			c0,1.3,1.1,2.4,2.3,2.4h3.9c1.3,0,2.3-1.1,2.3-2.7l0-20.2c0-4.6,3.7-8.3,8.3-8.3c4.6,0,8.3,3.7,8.3,8.3v20.6
			c0,1.3,1.1,2.4,2.3,2.4h3.9c1.3,0,2.3-1.1,2.3-2.4V89.5C487.5,80.8,482.6,75.1,474.1,75.1z"/>
		<path fill="#2E343D" d="M320.7,75.1c-5.8,0-9.3,3-11.7,6.4v-3.7c0-1.3-1.1-2.3-2.3-2.3h-3.9c-1.3,0-2.3,1.1-2.3,2.3v33.6
			c0,1.3,1.1,2.4,2.3,2.4h3.9c1.3,0,2.3-1.1,2.3-2.7l0-20.2c0-4.6,3.7-8.3,8.3-8.3s8.3,3.7,8.3,8.3v20.6c0,1.3,1.1,2.4,2.3,2.4h3.9
			c1.3,0,2.3-1.1,2.3-2.4V89.5C334,80.8,329.1,75.1,320.7,75.1z"/>
		<path fill="#2E343D" d="M599,75.6c-0.1,0-0.2-0.1-0.2-0.1c-0.1,0-0.2,0-0.3-0.1c-0.8-0.2-1.6-0.3-2.5-0.3c-4.5,0-8.4,2.6-10.2,6.4
			v-3.7c0-1.3-1.1-2.3-2.3-2.3h-3.9c-1.3,0-2.3,1-2.3,2.3v33.6c0,1.3,1.1,2.3,2.3,2.3h3.9c1.3,0,2.3-1.1,2.3-2.3V97.2
			c0-11.5,6-13.6,9.5-13.3c0.7,0.1,1.3,0.1,1.8,0.2c0,0,0.2,0,0.3,0c0,0,0.1,0,0.1,0c0.8,0,1.5-0.6,1.6-1.3l0.9-5.5
			c0-0.1,0-0.2,0-0.3C600,76.4,599.6,75.8,599,75.6z"/>
		<path fill="#2E343D" d="M429.5,75.1c-11.5,0-20,8.8-20,19.5v0.1v0.1c0,10.7,8.5,19.5,20,19.5s20-8.8,20-19.5v-0.1v-0.1
			C449.5,83.9,441,75.1,429.5,75.1z M440.7,94.7v0.1c0,6.6-4.6,11.9-11.3,12c-6.7-0.1-11.3-5.4-11.3-12v-0.1v-0.1
			c0-6.6,4.6-11.9,11.3-12c6.7,0.1,11.3,5.4,11.3,12V94.7z"/>
		<path fill="#2E343D" d="M552.8,75.1c-11.5,0-20,8.8-20,19.5v0.1v0.1c0,10.7,8.5,19.5,20,19.5s20-8.8,20-19.5v-0.1v-0.1
			C572.7,83.9,564.3,75.1,552.8,75.1z M564,94.7v0.1c0,6.6-4.6,11.9-11.3,12c-6.7-0.1-11.3-5.4-11.3-12v-0.1v-0.1
			c0-6.6,4.6-11.9,11.3-12c6.7,0.1,11.3,5.4,11.3,12V94.7z"/>
		<path fill="#2E343D" d="M402.7,63.3h-3.9c-0.8,0-1.4,0.4-1.9,0.9l-16.2,22.1l-16.2-22.1c-0.4-0.6-1.1-0.9-1.9-0.9h-3.9
			c-1.3,0-2.3,1.1-2.3,2.4v45.7c0,1.3,1.1,2.4,2.3,2.4h3.9c1.3,0,2.3-1.1,2.3-2.4V79.7L379.3,98c0,0,0,0,0,0l0.1,0.1h0
			c0.3,0.4,0.8,0.6,1.3,0.6c0.5,0,1-0.2,1.3-0.6h0l0.1-0.1c0,0,0,0,0,0l14.3-18.3v31.7c0,1.3,1.1,2.4,2.3,2.4h3.9
			c1.3,0,2.3-1.1,2.3-2.4V65.7C405,64.4,404,63.3,402.7,63.3z"/>
		<polygon fill="#2E343D" points="380.7,98.8 380.7,98.8 380.7,98.8 		"/>
		<path fill="#2E343D" d="M175.3,75.1c-6.1,0-10,2.5-12.8,6.4v-3.7c0-1.3-1.1-2.3-2.3-2.3h-3.9c-1.3,0-2.3,1-2.3,2.3v49.3
			c0,1.3,1.1,2.4,2.3,2.4h3.9c1.3,0,2.3-1.1,2.3-2.4v-19.4c2.6,3.5,6.5,6.4,12.8,6.4c8.9,0,17.4-7,17.4-19.5v-0.1
			C192.7,82.1,184.1,75.1,175.3,75.1z M184,94.8c0,7.2-4.9,12-10.6,12c-5.7,0-10.2-4.6-10.2-12v-0.1c0-7.3,4.5-12,10.2-12
			c5.6,0,10.6,4.8,10.6,12V94.8z"/>
		<path fill="#2E343D" d="M85,107.7L85,107.7L85,107.7c-0.9,0-1.7-0.7-1.7-1.7V77.8c0-1.3-1.1-2.3-2.3-2.3h-3.9
			c-1.3,0-2.3,1-2.3,2.3v3.7c-2.8-3.9-6.7-6.4-12.8-6.4c-8.8,0-17.4,7-17.4,19.5v0.1c0,12.4,8.5,19.5,17.4,19.5
			c6.4,0,11-2.9,12.9-6.4c1,3.5,4.2,6,7.9,6v0l2.2,0c0.9,0,1.7-0.7,1.7-1.7l0-2.8C86.7,108.4,85.9,107.7,85,107.7z M74,94.8
			c0,7.2-4.9,12-10.6,12c-5.7,0-10.2-4.6-10.2-12v-0.1c0-7.3,4.5-12,10.2-12c5.6,0,10.6,4.8,10.6,12V94.8z"/>
		<path fill="#2E343D" d="M236.9,107.7L236.9,107.7L236.9,107.7c-0.9,0-1.7-0.7-1.7-1.7V77.8c0-1.3-1.1-2.3-2.3-2.3h-3.9
			c-1.3,0-2.3,1-2.3,2.3v3.7c-2.8-3.9-6.7-6.4-12.8-6.4c-8.8,0-17.4,7-17.4,19.5v0.1c0,12.4,8.5,19.5,17.4,19.5
			c6.4,0,11-2.9,12.9-6.4c1,3.5,4.2,6,7.9,6v0l2.2,0c0.9,0,1.7-0.7,1.7-1.7l0-2.8C238.5,108.4,237.8,107.7,236.9,107.7z M225.8,94.8
			c0,7.2-4.9,12-10.6,12c-5.7,0-10.2-4.6-10.2-12v-0.1c0-7.3,4.5-12,10.2-12c5.6,0,10.6,4.8,10.6,12V94.8z"/>
		<path fill="#2E343D" d="M528.5,75.5h-8.2V65h0c0-0.3-0.1-0.7-0.3-0.9c-0.5-0.8-1.6-0.9-2.3-0.4l0,0l-4.1,2.9
			c-1.2,0.8-1.9,2.1-1.9,3.6v5.3h-2.8c-1.3,0-2.4,1.1-2.4,2.3v2.4c0,1.3,1.1,2.3,2.4,2.3h2.8v20.7c0,8.3,4.5,11,10.8,11
			c3.4,0,6.8-1.3,6.8-1.3s1.2-0.4,0.9-1.7c-0.1-0.5-0.7-3.7-0.7-3.7c-0.1-0.8-0.5-1.4-1.6-1.2c-0.6,0.1-1.6,0.3-3,0.3
			c-2.9,0-4.6-1.4-4.6-4.7V82.6h8.2c1.3,0,2.3-1.1,2.3-2.3v-2.4C530.9,76.5,529.8,75.5,528.5,75.5z"/>
	</g>
</g>
</svg>
