<?xml version="1.0" encoding="utf-8"?>
<!-- Generator: Adobe Illustrator 15.0.0, SVG Export Plug-In . SVG Version: 6.00 Build 0)  -->
<!DOCTYPE svg PUBLIC "-//W3C//DTD SVG 1.1//EN" "http://www.w3.org/Graphics/SVG/1.1/DTD/svg11.dtd">
<svg version="1.1" id="Layer_1" xmlns="http://www.w3.org/2000/svg" xmlns:xlink="http://www.w3.org/1999/xlink" x="0px" y="0px"
	 width="370px" height="182px" viewBox="0 0 370 182" enable-background="new 0 0 370 182" xml:space="preserve">
<g>
	<path fill="#FAFAF6" d="M296.187,12.5H73.788c-6.108,0-11.064,4.947-11.064,11.063v8.228l111.309,89.338
		c6.056,6.056,15.862,6.056,21.935,0l111.301-89.338v-8.228C307.268,17.447,302.303,12.5,296.187,12.5z"/>
	<path fill="#FAFAF6" d="M256.87,81.578l32.807,71.295l-44.717-61.33l-48.993,40.947c-6.063,6.029-15.871,6.029-21.935,0
		l-49.08-41.035l-44.787,61.417l32.859-71.382L62.732,39.47v119.354c0,6.125,4.947,11.081,11.063,11.081h222.398
		c6.117,0,11.082-4.946,11.082-11.081V39.47L256.87,81.578L256.87,81.578z"/>
</g>
</svg>
