<?xml version="1.0" encoding="utf-8"?>
<!-- Generator: Adobe Illustrator 15.0.0, SVG Export Plug-In . SVG Version: 6.00 Build 0)  -->
<!DOCTYPE svg PUBLIC "-//W3C//DTD SVG 1.1//EN" "http://www.w3.org/Graphics/SVG/1.1/DTD/svg11.dtd">
<svg version="1.1" id="Layer_1" xmlns="http://www.w3.org/2000/svg" xmlns:xlink="http://www.w3.org/1999/xlink" x="0px" y="0px"
	 width="370px" height="182px" viewBox="0 0 370 182" enable-background="new 0 0 370 182" xml:space="preserve">
<path fill="#FFFFFF" d="M100.125,182.039h37.334V59.182h-37.334V182.039z M119.037-0.04c-12.772,0-21.12,9.171-21.12,21.223
	c0,11.798,8.103,21.239,20.629,21.239h0.245c13.017,0,21.12-9.433,21.12-21.239C139.666,9.132,131.809-0.04,119.037-0.04z
	 M229.1,56.293c-19.838,0-28.693,11.941-33.654,20.305v0.396h-0.246l0.246-0.396V59.182H158.12c0.49,11.529,0,122.85,0,122.85
	h37.333v-68.613c0-3.672,0.245-7.336,1.234-9.963c2.698-7.336,8.839-14.932,19.149-14.932c13.516,0,18.921,11.268,18.921,27.774
	v65.733h37.333V111.59C272.083,73.86,253.67,56.293,229.1,56.293L229.1,56.293z"/>
</svg>
