<?xml version="1.0" encoding="utf-8"?>
<!-- Generator: Adobe Illustrator 15.0.0, SVG Export Plug-In . SVG Version: 6.00 Build 0)  -->
<!DOCTYPE svg PUBLIC "-//W3C//DTD SVG 1.1//EN" "http://www.w3.org/Graphics/SVG/1.1/DTD/svg11.dtd">
<svg version="1.1" id="Layer_1" xmlns="http://www.w3.org/2000/svg" xmlns:xlink="http://www.w3.org/1999/xlink" x="0px" y="0px"
	 width="370px" height="182px" viewBox="0 0 370 182" enable-background="new 0 0 370 182" xml:space="preserve">
<g>
	<g>
		<path fill="#292929" d="M462.039-44.897v-10.066h11.889c1.818,0,3.205,0.497,4.158,1.492c0.951,0.996,1.43,2.188,1.43,3.574
			c0,1.559-0.488,2.781-1.462,3.67c-0.974,0.888-2.351,1.33-4.126,1.33H462.039z M462.039-62.891v-9.42h11.563
			c1.562,0,2.794,0.445,3.704,1.332c0.91,0.889,1.362,2.025,1.362,3.411s-0.452,2.513-1.362,3.377c-0.91,0.867-2.143,1.3-3.704,1.3
			H462.039z M476.374-36.905c2.081,0,3.905-0.302,5.466-0.909s2.874-1.439,3.938-2.501c1.062-1.061,1.865-2.295,2.408-3.703
			c0.543-1.406,0.814-2.933,0.814-4.579c0-1.345-0.219-2.632-0.654-3.867c-0.438-1.232-1.038-2.314-1.799-3.249
			c-0.765-0.93-1.646-1.708-2.65-2.338c-1.003-0.627-2.09-1.027-3.27-1.2c1.05-0.217,2.017-0.595,2.914-1.138
			c0.893-0.54,1.691-1.233,2.389-2.079c0.697-0.845,1.242-1.827,1.635-2.954c0.393-1.129,0.591-2.382,0.591-3.77
			c0-1.428-0.262-2.815-0.78-4.156c-0.523-1.342-1.304-2.522-2.344-3.542c-1.042-1.016-2.344-1.829-3.906-2.436
			c-1.562-0.606-3.385-0.908-5.465-0.908h-22.844v43.329H476.374z M444.305-36.905v-8.12h-21.438v-9.81h20.984v-8.121h-20.984v-9.16
			h21.438v-8.118h-30.663v43.329H444.305z M394.998-36.905l12.344-43.329h-10.396l-7.534,31.31l-8.185-31.31h-7.212l-8.248,31.31
			l-7.602-31.31h-10.331l12.409,43.329h9.81l7.537-29.753l7.6,29.753H394.998z"/>
		<path fill="#292929" d="M488.775-98.121v-59.996h-12.772v37.688l-27.794-37.688h-13.133v59.996h12.772v-39.126l28.602,39.126
			H488.775z M386.28-109.905c-2.247-1.016-4.154-2.396-5.711-4.135c-1.561-1.741-2.777-3.81-3.643-6.208
			c-0.871-2.398-1.306-5.007-1.306-7.826c0-2.818,0.435-5.427,1.306-7.825c0.865-2.398,2.082-4.483,3.643-6.25
			c1.557-1.768,3.464-3.15,5.711-4.14c2.248-0.989,4.751-1.483,7.511-1.483c2.757,0,5.262,0.494,7.511,1.483s4.165,2.372,5.757,4.14
			c1.59,1.767,2.816,3.853,3.686,6.25c0.87,2.397,1.306,5.006,1.306,7.825c0,2.819-0.436,5.427-1.306,7.826
			c-0.869,2.398-2.096,4.467-3.686,6.208c-1.592,1.738-3.508,3.119-5.757,4.135c-2.249,1.021-4.754,1.53-7.511,1.53
			C391.031-108.375,388.528-108.884,386.28-109.905 M406.383-99.334c3.837-1.529,7.152-3.672,9.94-6.433
			c2.789-2.757,4.961-6.04,6.521-9.849c1.559-3.809,2.339-7.962,2.339-12.458s-0.78-8.647-2.339-12.458
			c-1.56-3.807-3.731-7.09-6.521-9.848c-2.788-2.757-6.104-4.903-9.94-6.432c-3.838-1.529-8.036-2.293-12.592-2.293
			c-4.499,0-8.666,0.765-12.504,2.293c-3.84,1.529-7.149,3.675-9.939,6.432c-2.786,2.758-4.961,6.041-6.521,9.848
			c-1.559,3.811-2.338,7.962-2.338,12.458s0.779,8.65,2.338,12.458c1.561,3.809,3.735,7.092,6.521,9.849
			c2.79,2.761,6.1,4.903,9.939,6.433c3.838,1.529,8.005,2.294,12.504,2.294C398.347-97.04,402.545-97.805,406.383-99.334
			 M312.657-109.364v-37.509h10.883c3.06,0,5.772,0.481,8.142,1.439c2.368,0.96,4.333,2.279,5.892,3.958
			c1.559,1.68,2.743,3.674,3.554,5.981c0.809,2.31,1.213,4.783,1.213,7.421c0,2.518-0.42,4.919-1.258,7.196
			c-0.842,2.279-2.07,4.271-3.69,5.982c-1.617,1.708-3.598,3.059-5.935,4.047c-2.339,0.991-4.977,1.484-7.917,1.484H312.657z
			 M323.579-98.121c4.684,0,8.994-0.72,12.929-2.159s7.298-3.462,10.092-6.071c2.794-2.607,4.971-5.757,6.531-9.443
			c1.561-3.688,2.342-7.782,2.342-12.279s-0.781-8.604-2.342-12.323c-1.561-3.717-3.737-6.881-6.531-9.489
			c-2.794-2.609-6.157-4.633-10.092-6.072c-3.935-1.438-8.245-2.159-12.929-2.159h-23.694v59.996H323.579z M287.113-98.121v-59.996
			H274.34v37.688l-27.793-37.688h-13.135v59.996h12.773v-39.126l28.604,39.126H287.113z M157.138-98.121v-11.243h-25.365v-48.752
			H119v59.996H157.138z"/>
	</g>
	<path fill="#292929" d="M332.016-175.578v-6.558H314.7v-7.923h16.948v-6.559H314.7v-7.398h17.315v-6.558H307.25v34.996H332.016z
		 M298.748-175.578v-34.996h-7.449v13.747H274.77v-13.747h-7.451v34.996h7.451v-14.69h16.529v14.69H298.748z M250.74-175.578
		v-28.438h10.18v-6.558h-27.863v6.558h10.232v28.438H250.74z"/>
	<g>
		<path fill="#E7BB20" d="M221.678-58.156l12.366-12.369l-7.95-7.949l-12.338,12.339l-14.69-14.909
			c-0.776-0.788-0.994-2.126-1.012-2.467l0.003-8.341c-1.88,0.29-3.805,0.443-5.767,0.443c-1.861,0-3.688-0.143-5.478-0.403
			l-0.003,8.297c0,0.619,0.118,6.175,4.247,10.364l39.705,40.294l8.008-7.894"/>
		<path fill="#E7BB20" d="M186.844-172.96l-0.002,6.993c1.778-0.26,3.597-0.4,5.448-0.4c1.972,0,3.905,0.155,5.796,0.448
			l0.002-7.037c0.002-5.761-3.585-9.86-3.993-10.308l-5.39-5.905l12.338-12.337l-7.951-7.95l-11.972,11.972l-16.431-18.008
			l-8.305,7.576l29.404,32.231C185.799-175.674,186.845-174.336,186.844-172.96z"/>
	</g>
	<path fill="#292929" d="M192.29-160.121c-17.25,0-31.232,13.985-31.232,31.232c0,6.946,2.269,13.361,6.104,18.542l27.705-27.73
		h-11.384c-7.627,0-7.042-10.025-7.042-10.025h18.397c17.124,0,17.124,16.609,17.124,16.609v18.984
		c-10.158,0-9.954-6.199-9.954-6.199v-12.274l-27.697,27.626c5.083,3.586,11.282,5.698,17.979,5.698
		c17.249,0,31.233-13.981,31.233-31.232C223.523-146.136,209.539-160.121,192.29-160.121"/>
</g>
<g>
	<g>
		<g>
			<path fill="#292929" d="M343.04,170.599v-10.07h11.889c1.816,0,3.203,0.498,4.158,1.494c0.95,0.996,1.426,2.188,1.426,3.572
				c0,1.56-0.485,2.784-1.461,3.671c-0.974,0.888-2.351,1.333-4.123,1.333H343.04z M343.04,152.603v-9.42h11.563
				c1.56,0,2.791,0.445,3.701,1.332c0.911,0.889,1.364,2.025,1.364,3.41c0,1.387-0.453,2.514-1.364,3.378
				c-0.91,0.867-2.142,1.3-3.701,1.3H343.04z M357.372,178.587c2.082,0,3.905-0.301,5.467-0.909c1.561-0.605,2.874-1.438,3.938-2.5
				c1.062-1.061,1.863-2.295,2.408-3.702c0.541-1.407,0.814-2.935,0.814-4.581c0-1.341-0.22-2.632-0.656-3.865
				s-1.034-2.315-1.799-3.249c-0.764-0.93-1.644-1.71-2.649-2.338c-1.002-0.628-2.091-1.029-3.27-1.202
				c1.049-0.216,2.018-0.594,2.913-1.137c0.896-0.54,1.691-1.233,2.39-2.079c0.697-0.845,1.241-1.829,1.635-2.954
				c0.393-1.127,0.59-2.382,0.59-3.77c0-1.428-0.262-2.814-0.781-4.157c-0.521-1.341-1.303-2.522-2.342-3.54
				c-1.042-1.017-2.345-1.83-3.906-2.436c-1.562-0.606-3.385-0.91-5.466-0.91h-22.844v43.329H357.372z M325.305,178.587v-8.12
				h-21.438v-9.809h20.983v-8.12h-20.983v-9.161h21.438v-8.119h-30.661v43.329H325.305z M275.998,178.587l12.342-43.329h-10.395
				l-7.534,31.312l-8.186-31.312h-7.21l-8.251,31.312l-7.601-31.312h-10.329l12.407,43.329h9.811l7.535-29.751l7.6,29.751H275.998z"
				/>
			<path fill="#292929" d="M369.776,117.373V57.377h-12.774v37.688l-27.794-37.688h-13.132v59.996h12.771V78.246l28.604,39.127
				H369.776z M267.278,105.589c-2.248-1.018-4.153-2.396-5.71-4.136c-1.562-1.74-2.775-3.81-3.643-6.208
				c-0.872-2.397-1.307-5.005-1.307-7.825c0-2.818,0.435-5.427,1.307-7.825c0.867-2.398,2.081-4.482,3.643-6.251
				c1.557-1.768,3.462-3.149,5.71-4.138c2.249-0.99,4.753-1.483,7.513-1.483c2.757,0,5.26,0.494,7.511,1.483
				c2.246,0.989,4.164,2.37,5.755,4.138c1.589,1.769,2.819,3.854,3.688,6.251s1.306,5.007,1.306,7.825
				c0,2.819-0.438,5.427-1.306,7.825c-0.868,2.398-2.099,4.468-3.688,6.208c-1.591,1.739-3.509,3.118-5.755,4.136
				c-2.251,1.021-4.754,1.529-7.511,1.529C272.031,107.118,269.527,106.61,267.278,105.589 M287.384,116.159
				c3.835-1.529,7.149-3.673,9.938-6.432c2.79-2.757,4.961-6.039,6.522-9.851c1.558-3.808,2.338-7.96,2.338-12.457
				c0-4.498-0.78-8.649-2.338-12.458c-1.562-3.808-3.732-7.092-6.522-9.849c-2.788-2.757-6.103-4.904-9.938-6.433
				c-3.841-1.528-8.038-2.292-12.593-2.292c-4.5,0-8.668,0.765-12.503,2.292c-3.841,1.529-7.152,3.675-9.94,6.433
				c-2.788,2.757-4.963,6.041-6.521,9.849c-1.56,3.808-2.339,7.96-2.339,12.458c0,4.497,0.779,8.649,2.339,12.457
				c1.559,3.812,3.733,7.094,6.521,9.851c2.788,2.759,6.1,4.902,9.94,6.432c3.835,1.529,8.003,2.294,12.503,2.294
				C279.346,118.453,283.543,117.688,287.384,116.159 M193.657,106.129V68.621h10.883c3.058,0,5.772,0.48,8.141,1.439
				c2.368,0.959,4.332,2.28,5.892,3.958c1.559,1.679,2.743,3.673,3.553,5.981c0.811,2.309,1.215,4.782,1.215,7.421
				c0,2.518-0.42,4.917-1.26,7.195c-0.84,2.281-2.068,4.273-3.688,5.982s-3.598,3.059-5.937,4.048s-4.978,1.483-7.916,1.483H193.657
				z M204.579,117.373c4.684,0,8.993-0.719,12.929-2.159c3.934-1.438,7.297-3.463,10.091-6.072c2.794-2.607,4.97-5.756,6.532-9.443
				c1.562-3.688,2.342-7.781,2.342-12.278c0-4.498-0.78-8.604-2.342-12.324c-1.562-3.717-3.738-6.881-6.532-9.489
				c-2.794-2.609-6.157-4.632-10.091-6.072c-3.936-1.439-8.245-2.158-12.929-2.158h-23.695v59.996H204.579z M168.112,117.373V57.377
				H155.34v37.688l-27.794-37.688h-13.133v59.996h12.773V78.246l28.604,39.127H168.112z M38.138,117.373v-11.244H12.772V57.377H0
				v59.996H38.138z"/>
		</g>
		<path fill="#292929" d="M198.69,39.917v-5.622h-14.842v-6.791h14.527v-5.622h-14.527v-6.341h14.842V9.919h-21.229v29.998H198.69z
			 M170.176,39.917V9.919h-6.386v11.785h-14.167V9.919h-6.387v29.998h6.387V27.325h14.167v12.591H170.176z M129.026,39.917V15.541
			h8.726V9.919H113.87v5.622h8.77v24.375H129.026z"/>
	</g>
	<g>
		<path fill="#E7BB20" d="M68.132,42.534l-0.002,6.992c1.779-0.259,3.597-0.398,5.448-0.398c1.971,0,3.906,0.154,5.795,0.447
			l0.002-7.036c0.002-5.762-3.584-9.86-3.993-10.308l-5.389-5.905L82.33,13.987l-7.95-7.951L62.408,18.009L45.977,0l-8.305,7.577
			l29.403,32.23C67.085,39.819,68.132,41.158,68.132,42.534z"/>
		<path fill="#E7BB20" d="M102.965,157.337l12.366-12.367l-7.951-7.951l-12.338,12.338l-14.69-14.906
			c-0.777-0.789-0.995-2.125-1.012-2.47l0.003-8.339c-1.879,0.291-3.805,0.441-5.767,0.441c-1.861,0-3.688-0.141-5.477-0.402
			l-0.003,8.296c0,0.619,0.117,6.174,4.247,10.365l39.704,40.293l8.009-7.892"/>
	</g>
	<path fill="#292929" d="M73.29,55.373c-17.25,0-31.232,13.985-31.232,31.232c0,6.945,2.268,13.361,6.103,18.544l27.706-27.732
		H64.483c-7.628,0-7.042-10.026-7.042-10.026h18.397C92.962,67.391,92.962,84,92.962,84v18.985c-10.157,0-9.954-6.199-9.954-6.199
		V84.512l-27.697,27.625c5.084,3.587,11.282,5.7,17.979,5.7c17.25,0,31.232-13.983,31.232-31.232
		C104.522,69.358,90.54,55.373,73.29,55.373"/>
</g>
</svg>
