<?xml version="1.0" encoding="utf-8"?>
<!-- Generator: Adobe Illustrator 18.0.0, SVG Export Plug-In . SVG Version: 6.00 Build 0)  -->
<!DOCTYPE svg PUBLIC "-//W3C//DTD SVG 1.1//EN" "http://www.w3.org/Graphics/SVG/1.1/DTD/svg11.dtd">
<svg version="1.1" id="Layer_1" xmlns="http://www.w3.org/2000/svg" xmlns:xlink="http://www.w3.org/1999/xlink" x="0px" y="0px"
	 viewBox="0 0 370 182" enable-background="new 0 0 370 182" xml:space="preserve">
<g>
	<g>
		<path fill="#292929" d="M342.075,169.927v-10.041h11.855c1.814,0,3.195,0.497,4.146,1.49c0.949,0.994,1.425,2.181,1.425,3.563
			c0,1.555-0.486,2.776-1.457,3.66c-0.972,0.886-2.343,1.328-4.114,1.328H342.075z M342.075,151.983v-9.393h11.531
			c1.555,0,2.786,0.443,3.693,1.328c0.907,0.886,1.36,2.019,1.36,3.401c0,1.383-0.454,2.505-1.36,3.368
			c-0.907,0.865-2.138,1.296-3.693,1.296H342.075z M356.369,177.895c2.076,0,3.893-0.301,5.45-0.907
			c1.557-0.604,2.865-1.435,3.927-2.494c1.059-1.058,1.86-2.288,2.401-3.692c0.541-1.403,0.812-2.925,0.812-4.567
			c0-1.338-0.218-2.624-0.653-3.854c-0.436-1.231-1.033-2.31-1.794-3.239c-0.761-0.928-1.641-1.705-2.641-2.332
			c-1-0.625-2.087-1.025-3.262-1.198c1.045-0.216,2.012-0.593,2.905-1.134c0.892-0.539,1.685-1.231,2.382-2.073
			c0.696-0.842,1.24-1.824,1.632-2.947c0.391-1.122,0.588-2.374,0.588-3.757c0-1.425-0.26-2.807-0.78-4.146
			c-0.52-1.338-1.298-2.515-2.336-3.531c-1.039-1.014-2.337-1.824-3.894-2.429c-1.557-0.604-3.375-0.907-5.451-0.907h-22.779v43.208
			H356.369z M324.39,177.895v-8.097h-21.377v-9.782h20.924v-8.098h-20.924v-9.134h21.377v-8.098h-30.576v43.208H324.39z
			 M275.222,177.895l12.308-43.208h-10.365l-7.515,31.224l-8.162-31.224h-7.191l-8.227,31.224l-7.579-31.224h-10.3l12.373,43.208
			h9.782l7.515-29.669l7.579,29.669H275.222z"/>
		<path fill="#292929" d="M367.838,116.852V57.025h-12.737v37.582l-27.716-37.582H314.29v59.827h12.737V77.835l28.523,39.018
			H367.838z M266.528,105.102c-2.242-1.017-4.142-2.391-5.696-4.126c-1.556-1.734-2.767-3.797-3.633-6.189
			c-0.868-2.391-1.302-4.992-1.302-7.803c0-2.81,0.433-5.412,1.302-7.803c0.866-2.391,2.077-4.47,3.633-6.234
			c1.553-1.763,3.453-3.139,5.696-4.126c2.241-0.987,4.738-1.48,7.49-1.48c2.749,0,5.247,0.493,7.488,1.48
			c2.244,0.987,4.156,2.363,5.74,4.126c1.585,1.764,2.811,3.843,3.678,6.234c0.867,2.392,1.302,4.993,1.302,7.803
			c0,2.812-0.435,5.413-1.302,7.803c-0.867,2.392-2.093,4.455-3.678,6.189c-1.585,1.735-3.497,3.109-5.74,4.126
			c-2.241,1.018-4.739,1.525-7.488,1.525C271.266,106.627,268.769,106.12,266.528,105.102 M286.575,115.641
			c3.826-1.525,7.131-3.663,9.91-6.413c2.782-2.749,4.948-6.023,6.504-9.822c1.553-3.797,2.331-7.938,2.331-12.423
			s-0.777-8.625-2.331-12.423c-1.556-3.797-3.722-7.071-6.504-9.822c-2.779-2.749-6.084-4.888-9.91-6.413
			c-3.828-1.525-8.014-2.287-12.557-2.287c-4.486,0-8.642,0.762-12.468,2.287c-3.828,1.525-7.131,3.664-9.913,6.413
			c-2.779,2.751-4.948,6.025-6.502,9.822c-1.556,3.798-2.332,7.938-2.332,12.423s0.776,8.626,2.332,12.423
			c1.553,3.798,3.722,7.072,6.502,9.822c2.782,2.751,6.084,4.888,9.913,6.413c3.826,1.525,7.982,2.287,12.468,2.287
			C278.561,117.928,282.747,117.166,286.575,115.641 M192.215,105.64V68.237h10.853c3.05,0,5.755,0.48,8.117,1.435
			c2.362,0.957,4.32,2.274,5.875,3.947c1.555,1.674,2.736,3.664,3.543,5.965c0.807,2.302,1.211,4.769,1.211,7.4
			c0,2.511-0.419,4.903-1.256,7.176c-0.837,2.273-2.063,4.26-3.678,5.965c-1.615,1.704-3.588,3.05-5.92,4.036
			c-2.332,0.987-4.963,1.48-7.893,1.48H192.215z M203.107,116.852c4.67,0,8.968-0.718,12.893-2.153
			c3.923-1.435,7.277-3.453,10.062-6.054c2.786-2.601,4.956-5.741,6.513-9.418c1.557-3.678,2.336-7.759,2.336-12.243
			s-0.779-8.58-2.336-12.288c-1.557-3.707-3.727-6.862-6.513-9.463c-2.786-2.601-6.139-4.619-10.062-6.054
			c-3.924-1.435-8.222-2.153-12.893-2.153h-23.629v59.827H203.107z M166.743,116.852V57.025h-12.737v37.582L126.29,57.025h-13.096
			v59.827h12.737V77.835l28.523,39.018H166.743z M38.031,116.852V105.64H12.737V57.025H0v59.827H38.031z"/>
	</g>
	<path fill="#292929" d="M189.411,39.614v-5.606h-14.8v-6.772h14.486V21.63h-14.486v-6.324h14.8V9.701h-21.168v29.913H189.411z
		 M160.977,39.614V9.701h-6.368v11.75h-14.127V9.701h-6.368v29.913h6.368V27.057h14.127v12.557H160.977z M119.943,39.614V15.307h8.7
		V9.701h-23.814v5.606h8.745v24.308H119.943z"/>
	<g>
		<path fill="#EFB21B" d="M102.389,156.703l12.332-12.332l-7.928-7.927L94.49,148.747l-14.648-14.866
			c-0.776-0.787-0.993-2.12-1.01-2.464l0.003-8.315c-1.875,0.289-3.795,0.441-5.751,0.441c-1.855,0-3.678-0.14-5.461-0.401
			l-0.003,8.271c0,0.617,0.117,6.156,4.235,10.336l39.592,40.18l7.987-7.869L102.389,156.703z"/>
		<path fill="#EFB21B" d="M67.653,42.224l-0.003,6.972c1.774-0.258,3.587-0.398,5.433-0.398c1.966,0,3.895,0.154,5.779,0.446
			l0.003-7.016c0.002-5.745-3.574-9.832-3.982-10.279L69.51,26.06l12.302-12.302l-7.928-7.928L61.945,17.768L45.561-0.191
			l-8.282,7.556L66.6,39.505C66.61,39.516,67.654,40.851,67.653,42.224z"/>
	</g>
	<path fill="#292929" d="M73.084,55.026c-17.202,0-31.144,13.945-31.144,31.144c0,6.925,2.262,13.322,6.087,18.492l27.628-27.654
		H64.302c-7.607,0-7.022-9.999-7.022-9.999h18.346c17.075,0,17.075,16.562,17.075,16.562v18.931c-10.128,0-9.925-6.181-9.925-6.181
		v-12.24l-27.62,27.549c5.07,3.575,11.251,5.683,17.928,5.683c17.202,0,31.144-13.944,31.144-31.144
		C104.228,68.972,90.285,55.026,73.084,55.026"/>
	<path fill="none" stroke="#292929" stroke-width="10" d="M120.369,93.283"/>
</g>
</svg>
