<?xml version="1.0" encoding="utf-8"?>
<!-- Generator: Adobe Illustrator 18.1.1, SVG Export Plug-In . SVG Version: 6.00 Build 0)  -->
<!DOCTYPE svg PUBLIC "-//W3C//DTD SVG 1.1//EN" "http://www.w3.org/Graphics/SVG/1.1/DTD/svg11.dtd">
<svg version="1.1" id="Layer_1" xmlns="http://www.w3.org/2000/svg" xmlns:xlink="http://www.w3.org/1999/xlink" x="0px" y="0px"
	 viewBox="0 0 595.3 595.3" enable-background="new 0 0 595.3 595.3" xml:space="preserve">
<path fill="#02AEDC" d="M297.6,0C133.3,0,0,133.3,0,297.6c0,66.2,21.6,127.3,58.2,176.7l264-264.3H213.7
	c-72.7,0-67.1-95.6-67.1-95.6H322c163.2,0,163.2,158.3,163.2,158.3v180.9c-96.8,0-94.9-59.1-94.9-59.1v-117L126.3,541
	c48.5,34.2,107.5,54.3,171.3,54.3c164.4,0,297.6-133.3,297.6-297.6S462,0,297.6,0L297.6,0z"/>
</svg>
