<?xml version="1.0" encoding="utf-8"?>
<!-- Generator: Adobe Illustrator 18.0.0, SVG Export Plug-In . SVG Version: 6.00 Build 0)  -->
<!DOCTYPE svg PUBLIC "-//W3C//DTD SVG 1.1//EN" "http://www.w3.org/Graphics/SVG/1.1/DTD/svg11.dtd">
<svg version="1.1" id="Layer_1" xmlns="http://www.w3.org/2000/svg" xmlns:xlink="http://www.w3.org/1999/xlink" x="0px" y="0px"
	 viewBox="0 0 100 100" enable-background="new 0 0 100 100" xml:space="preserve">
<path fill="#D63737" d="M50,0C22.385,0,0,22.388,0,50c0,11.117,3.632,21.388,9.772,29.688l44.353-44.395H35.903
	c-12.213,0-11.275-16.053-11.275-16.053h29.454c27.412,0,27.412,26.59,27.412,26.59v30.392c-16.26,0-15.933-9.924-15.933-9.924
	v-19.65L21.217,90.875C29.357,96.615,39.279,100,50,100c27.616,0,50-22.387,50-50C100,22.388,77.616,0,50,0L50,0z"/>
</svg>
