<?xml version="1.0" encoding="utf-8"?>
<!-- Generator: Adobe Illustrator 18.1.1, SVG Export Plug-In . SVG Version: 6.00 Build 0)  -->
<!DOCTYPE svg PUBLIC "-//W3C//DTD SVG 1.1//EN" "http://www.w3.org/Graphics/SVG/1.1/DTD/svg11.dtd">
<svg version="1.1" id="Layer_1" xmlns="http://www.w3.org/2000/svg" xmlns:xlink="http://www.w3.org/1999/xlink" x="0px" y="0px"
	 viewBox="0 102.9 797.8 393.8" enable-background="new 0 102.9 797.8 393.8" xml:space="preserve">
<g>
	<g>
		<path d="M739.6,470.7V449h25.6c3.9,0,6.9,1.1,9,3.2s3.1,4.7,3.1,7.7c0,3.4-1.1,6-3.2,7.9c-2.1,1.9-5.1,2.9-8.9,2.9H739.6
			L739.6,470.7z M739.6,431.9v-20.3h24.9c3.4,0,6,1,8,2.9s2.9,4.4,2.9,7.4s-1,5.4-2.9,7.3c-2,1.9-4.6,2.8-8,2.8L739.6,431.9
			L739.6,431.9z M770.5,487.9c4.5,0,8.4-0.7,11.8-2c3.4-1.3,6.2-3.1,8.5-5.4s4-4.9,5.2-8c1.2-3,1.8-6.3,1.8-9.9
			c0-2.9-0.5-5.7-1.4-8.3c-0.9-2.7-2.2-5-3.9-7c-1.6-2-3.5-3.7-5.7-5c-2.2-1.4-4.5-2.2-7.1-2.6c2.3-0.5,4.4-1.3,6.3-2.5
			c1.9-1.2,3.6-2.7,5.2-4.5c1.5-1.8,2.7-3.9,3.5-6.4c0.8-2.4,1.3-5.1,1.3-8.1c0-3.1-0.6-6.1-1.7-9c-1.1-2.9-2.8-5.4-5.1-7.6
			c-2.2-2.2-5.1-3.9-8.4-5.3c-3.4-1.3-7.3-2-11.8-2h-49.3v93.4L770.5,487.9L770.5,487.9z M701.4,487.9v-17.5h-46.2v-21.2h45.2v-17.5
			h-45.2V412h46.2v-17.5h-66.1v93.4H701.4L701.4,487.9z M595.1,487.9l26.6-93.4h-22.4L583,462l-17.6-67.5h-15.5L532,462l-16.4-67.5
			h-22.3l26.8,93.4h21.2l16.2-64.1l16.4,64.1H595.1L595.1,487.9z"/>
		<path d="M795.3,355.9V226.5h-27.5v81.3l-59.9-81.3h-28.3v129.4h27.5v-84.4l61.7,84.4L795.3,355.9L795.3,355.9z M576.3,330.5
			c-4.8-2.2-9-5.2-12.3-8.9c-3.4-3.7-6-8.2-7.9-13.4c-1.9-5.2-2.8-10.8-2.8-16.9s0.9-11.7,2.8-16.9c1.9-5.2,4.5-9.7,7.9-13.5
			s7.5-6.8,12.3-8.9c4.8-2.1,10.2-3.2,16.2-3.2c5.9,0,11.3,1.1,16.2,3.2c4.9,2.1,9,5.1,12.4,8.9s6.1,8.3,8,13.5s2.8,10.8,2.8,16.9
			s-0.9,11.7-2.8,16.9c-1.9,5.2-4.5,9.6-8,13.4c-3.4,3.8-7.6,6.7-12.4,8.9c-4.8,2.2-10.2,3.3-16.2,3.3S581.1,332.7,576.3,330.5
			 M619.6,353.3c8.3-3.3,15.4-7.9,21.4-13.9c6-5.9,10.7-13,14.1-21.2c3.4-8.2,5-17.2,5-26.9c0-9.7-1.7-18.6-5-26.9
			c-3.4-8.2-8-15.3-14.1-21.2c-6-5.9-13.2-10.6-21.4-13.9c-8.3-3.3-17.3-4.9-27.2-4.9c-9.7,0-18.7,1.6-27,4.9
			c-8.3,3.3-15.4,7.9-21.4,13.9c-6,5.9-10.7,13-14.1,21.2c-3.4,8.2-5,17.2-5,26.9s1.7,18.7,5,26.9c3.4,8.2,8,15.3,14.1,21.2
			c6,5.9,13.2,10.6,21.4,13.9c8.3,3.3,17.3,4.9,27,4.9C602.3,358.2,611.3,356.6,619.6,353.3 M415.6,331.7v-80.9h23.5
			c6.6,0,12.4,1,17.6,3.1c5.1,2.1,9.3,4.9,12.7,8.5c3.4,3.6,5.9,7.9,7.7,12.9c1.7,5,2.6,10.3,2.6,16c0,5.4-0.9,10.6-2.7,15.5
			c-1.8,4.9-4.5,9.2-8,12.9c-3.5,3.7-7.8,6.6-12.8,8.7s-10.7,3.2-17.1,3.2L415.6,331.7L415.6,331.7z M439.2,355.9
			c10.1,0,19.4-1.6,27.9-4.7s15.7-7.5,21.8-13.1c6-5.6,10.7-12.4,14.1-20.4s5.1-16.8,5.1-26.5s-1.7-18.6-5.1-26.6
			s-8.1-14.8-14.1-20.5c-6-5.6-13.3-10-21.8-13.1s-17.8-4.7-27.9-4.7h-51.1v129.4L439.2,355.9L439.2,355.9z M360.5,355.9V226.5H333
			v81.3l-59.9-81.3h-28.3v129.4h27.5v-84.4l61.7,84.4L360.5,355.9L360.5,355.9z M82.2,355.9v-24.2H27.5V226.5H0v129.4H82.2
			L82.2,355.9z"/>
	</g>
	<path d="M409.5,188.9v-12.1h-32v-14.6h31.3V150h-31.3v-13.7h32v-12.1h-45.8v64.7H409.5z M348.1,188.9v-64.7h-13.8v25.4h-30.5v-25.4
		H290v64.7h13.8v-27.2h30.5v27.2H348.1z M259.3,188.9v-52.6h18.8v-12.1h-51.5v12.1h18.9v52.6H259.3L259.3,188.9z"/>
	<g>
		<path fill="#EFB21B" d="M221.4,442.1l26.7-26.7L231,398.3l-26.6,26.6l-31.7-32.1c-1.7-1.7-2.1-4.6-2.2-5.3v-18
			c-4.1,0.6-8.2,1-12.4,1c-4,0-8-0.3-11.8-0.9v17.9c0,1.3,0.3,13.3,9.2,22.3l85.6,86.9l17.3-17L221.4,442.1z"/>
		<path fill="#EFB21B" d="M146.3,194.5v15.1c3.8-0.6,7.8-0.9,11.7-0.9c4.3,0,8.4,0.3,12.5,1v-15.2c0-12.4-7.7-21.3-8.6-22.2
			l-11.6-12.7l26.6-26.6l-17.1-17.1L134,141.7l-35.4-38.8l-17.9,16.3l63.4,69.5C144,188.7,146.3,191.6,146.3,194.5z"/>
	</g>
	<path d="M158,222.2c-37.2,0-67.3,30.2-67.3,67.3c0,15,4.9,28.8,13.2,40l59.7-59.8H139c-16.4,0-15.2-21.6-15.2-21.6h39.7
		c36.9,0,36.9,35.8,36.9,35.8v40.9c-21.9,0-21.5-13.4-21.5-13.4V285l-59.7,59.6c11,7.7,24.3,12.3,38.8,12.3
		c37.2,0,67.3-30.1,67.3-67.3C225.4,252.4,195.2,222.2,158,222.2"/>
	<path fill="none" stroke="#292929" stroke-width="10" d="M260.3,304.9"/>
</g>
</svg>
