<?xml version="1.0" encoding="utf-8"?>
<!-- Generator: Adobe Illustrator 15.0.0, SVG Export Plug-In . SVG Version: 6.00 Build 0)  -->
<!DOCTYPE svg PUBLIC "-//W3C//DTD SVG 1.1//EN" "http://www.w3.org/Graphics/SVG/1.1/DTD/svg11.dtd">
<svg version="1.1" id="Layer_1" xmlns="http://www.w3.org/2000/svg" xmlns:xlink="http://www.w3.org/1999/xlink" x="0px" y="0px"
	 width="370px" height="182px" viewBox="0 0 370 182" enable-background="new 0 0 370 182" xml:space="preserve">
<path fill="#FFFFFF" d="M292.057,23.66c-13.914,7.156-25.835,7.032-25.835,7.032s15.238-8.355,19.747-24.785
	c-18.547,10.605-28.764,10.862-28.764,10.862S237.061-7.082,204.871,6.568c-33.265,15.239-24.917,51.423-24.917,51.423
	S126.818,59.977,86.53,10.68c-19.64,37.26,13.518,60.151,13.518,60.151s-9.009,1.067-20.144-5.294
	c2.391,37.103,32.338,45.061,36.044,44.797c-11.392,3.176-19.879,1.323-19.879,1.323s9.009,30.741,41.876,30.741
	c-33.132,26.771-66.529,19.085-66.529,19.085s66.256,48.238,141.794-1.323c63.345-43.465,55.915-112.898,55.915-112.898
	S282.66,38.774,292.057,23.66L292.057,23.66z"/>
</svg>
